# xmcd CD database file
#
# Track frame offsets:
#	150
#	16220
#	40342
#	60430
#	82400
#	101285
#	120677
#	136200
#	155002
#	176059
#	199402
#	214197
#
# Disc length: 3142 seconds
#
# Revision: 0
# Processed by: cddbd v1.5.2PL0 Copyright (c) Steve Scherf et al.
# Submitted via: CDex 1.51
#
DISCID=a90c440c
DTITLE=Don Michael SAMPSON - Copper Moon
DYEAR=1995
DGENRE=Country
TTITLE0=Three White Horses
TTITLE1=Sleeping Dogs
TTITLE2=Dark Horse Rider
TTITLE3=Black Tambourine
TTITLE4=61 Road
TTITLE5=Strongest Of Stars
TTITLE6=Blue
TTITLE7=Thieves
TTITLE8=Red Bird In The Rain
TTITLE9=Lonesome Ace
TTITLE10=Long Time Ago
TTITLE11=All There Is To Know
EXTD=YEAR: 1995
EXTT0=
EXTT1=
EXTT2=
EXTT3=
EXTT4=
EXTT5=
EXTT6=
EXTT7=
EXTT8=
EXTT9=
EXTT10=
EXTT11=
PLAYORDER=
